General                          : ChattChitto RG - Movies

Complete name                    : The Spy Next Door 2010 BRRip.mp4
Format                           : MPEG-4
Format profile                   : Base Media
Codec ID                         : isom
File size                        : 1.75 GiB
Duration                         : 1h 34mn
Overall bit rate                 : 2 658 Kbps
Encoded date                     : UTC 2010-05-05 12:03:37

Video
==========
ID                               : 1
Format                           : AVC
Format/Info                      : Advanced Video Codec
Format profile                   : High@L3.1
Format settings, CABAC           : Yes
Format settings, ReFrames        : 3 frames
Codec ID                         : avc1
Codec ID/Info                    : Advanced Video Coding
Duration                         : 1h 34mn
Bit rate mode                    : Variable
Bit rate                         : 2 300 Kbps
Maximum bit rate                 : 22.1 Mbps
Width                            : 1 280 pixels
Height                           : 688 pixels
Display aspect ratio             : 1.860
Frame rate mode                  : Constant
Frame rate                       : 23.976 fps
Resolution                       : 8 bits
Colorimetry                      : 4:2:0
Scan type                        : Progressive
Bits/(Pixel*Frame)               : 0.109
Stream size                      : 1.52 GiB (87%)
Writing library                  : x264 core 76 r1271 496d79d
Encoded date                     : UTC 2010-05-05 10:05:10

Audio
==========
ID                               : 2
Format                           : AAC
Format/Info                      : Advanced Audio Codec
Format version                   : Version 4
Format profile                   : LC
Format settings, SBR             : No
Codec ID                         : 40
Duration                         : 1h 34mn
Bit rate mode                    : Variable
Bit rate                         : 352.8 Kbps
Maximum bit rate                 : 425 Kbps
Channel(s)                       : 6 channels
Channel positions                : Front: L C R, Side: L R, LFE
Sampling rate                    : 48.0 KHz
Stream size                      : 239 MiB (13%)
Encoded date                     : UTC 2010-05-05 12:04:33

Subtitles                        : English | Spanish



----------------------------------------------------
IMDB Link: http://www.imdb.com/title/tt1273678/
----------------------------------------------------


Screen Shots:
============== 
http://bayimg.com/HamFpaAcG 
http://bayimg.com/HAmfNaacg     
http://bayimg.com/HAmFMaACG 
http://bayimg.com/hAMfLAacG 
http://bayimg.com/hamFKAAcG



Plot:
======
Bob Ho is an undercover CIA superspy who decides to give up his career in espionage to settle down with his next-door neighbor and girlfriend, Gillian. But Bob has one more mission to complete before Gillian agrees to marry him: winning over her three opinionated kids. When Gillian suddenly has to leave town, Bob volunteers to babysit the children so he can earn their approval. But when one of the kids mistakenly downloads a top- secret formula from his computer, Bob's archenemy, a Russian terrorist, moves in for the attack, forcing Bob to juggle the roles of spy and prospective stepfather in the most challenging mission of his career!




Release Info:
==============
original name .... : The Spy Next Door 2010 BRRip.mp4
ripper.............: CBGB
encoder............: Recalled2Life (R2L)
video codec........: H264/.MP4                   
video bitrate......: 2300 Kbps                           
audio codec........: AAC-LC	                                        
aspect ratio.......: 1.85:1                              
resolution.........: 1280 x 688                             
genre..............: Action | Comedy | Family          
runtime............: 1h 34mn
language...........: English
MPAA rating........: PG                             
subtitles..........: English | Spanish
sample.............: Yes [9.43 MB]
2ch Audio..........: 2ch Audio for XBox Viewers  
Compatibility .....: XBox 360 | PS3 | WD Live     



Source:
========
The Spy Next Door 1080p Bluray x264-CBGB


Notes:
=======
ChattChitto RG Encourages Burning this Film with ConvertXtoDVD.
XBox 360 | PS3 | WD Live - Compatible
Enhanced and Filtered for your viewing pleasure ;)